<svg width="702" height="560" viewBox="0 0 702 560" fill="none" xmlns="http://www.w3.org/2000/svg">
<path d="M135.988 304.521C107.159 303.816 89.2861 306.875 62.1658 302.715C35.0456 298.555 18.2501 287.961 18.2501 287.961" stroke="black"/>
<path d="M561.155 283.386C589.984 282.681 607.856 285.74 634.977 281.58C662.097 277.42 678.892 266.826 678.892 266.826" stroke="black"/>
<line x1="335.922" y1="560" x2="335.922" y2="500.013" stroke="black"/>
<line x1="392.944" y1="556.477" x2="392.944" y2="496.49" stroke="black"/>
<line x1="336.422" y1="556.874" x2="306.234" y2="556.874" stroke="black"/>
<line x1="420.278" y1="556.874" x2="390.09" y2="556.874" stroke="black"/>
<line y1="-0.5" x2="20.2697" y2="-0.5" transform="matrix(0.920808 -0.390017 0.358514 0.933524 1 298.011)" stroke="black"/>
<line y1="-0.5" x2="21.1341" y2="-0.5" transform="matrix(-0.0304982 0.999535 -0.999434 -0.033633 679.198 246.58)" stroke="black"/>
<line y1="-0.5" x2="20.2832" y2="-0.5" transform="matrix(-0.913102 -0.407731 0.375282 -0.926911 19.9072 287.317)" stroke="black"/>
<line y1="-0.5" x2="20.6042" y2="-0.5" transform="matrix(0.712439 -0.701734 0.666108 0.745855 680.885 269.066)" stroke="black"/>
<line y1="-0.5" x2="20.997" y2="-0.5" transform="matrix(-0.358514 -0.933524 0.920808 -0.390017 19.9072 287.317)" stroke="black"/>
<line y1="-0.5" x2="20.1264" y2="-0.5" transform="matrix(0.999434 0.033633 -0.0304982 0.999535 680.885 269.066)" stroke="black"/>
<ellipse cx="356.548" cy="271.047" rx="228.087" ry="239.535" fill="#FFE34C"/>
<ellipse cx="272.692" cy="200.595" rx="6.70844" ry="7.04514" fill="black"/>
<ellipse cx="426.986" cy="200.595" rx="6.70844" ry="7.04514" fill="black"/>
<path d="M406.89 90.2761C406.89 90.2761 417.443 84.7937 426.986 84.5421C436.53 84.2905 445.065 89.2696 445.065 89.2696" stroke="black"/>
<path d="M248.546 130.592C248.546 130.592 258.551 127.121 268.092 126.797C277.634 126.472 286.712 129.293 286.712 129.293" stroke="black"/>
<rect width="154.825" height="10.9394" transform="matrix(0.962614 -0.270877 0.247224 0.968958 222.379 51.9937)" fill="black"/>
<path d="M255.276 17.807C255.208 17.5394 255.368 17.2619 255.634 17.1871L316.23 0.135503C316.496 0.0607023 316.767 0.216973 316.835 0.484543L322.788 23.8178L261.23 41.1403L255.276 17.807Z" fill="black"/>
<path d="M380.027 380.938C370.925 392.4 358.531 392.708 349.839 380.938" stroke="black"/>
</svg>
